#!OML:ASF E:/inclinewalkrobotboard/Project1/Captureday1/Session1/subject1.ASF
:FULLY-SPECIFIED
:DEGREES
13
root 0 0 0 1.0393501808892343 -3.672590615391516 1.8303480118028301
lowerback 11.978641638335706 0.8494866218513348 -0.0628355199030535
upperback -4.2304993756797336 1.0787463536447852 -0.542779591971614
thorax -11.341339451574733 0.4937892586227609 -0.7840622506635411
lowerneck -5.779909432220687 1.4864170562327912 4.565016633717049
upperneck 18.03433698598553 2.9414782565762105 -8.344262845080998
head 6.589044495953418 1.0740939724509508 -3.224883005133408
rclavicle 2.0663050651274938E-16 -2.0348044716961924E-15
rhumerus 19.88737740695554 14.348647923285597 -47.737867434952776
rradius 72.23131922828581
rwrist 27.12978653116062
rhand -34.62856135655399 -57.1041647126749
rfingers 7.125020000000035
rthumb -7.781627015949493 -87.15868639640813
lclavicle -1.114050866266101E-16 -4.504246999422286E-16
lhumerus 21.029481718719715 -12.455291196389403 45.30167595991797
lradius 70.02915633545844
lwrist -22.264694092134093
lhand -44.78275968067999 -70.24399356077986
lfingers 7.125020000000026
lthumb -17.570861566342327 -40.92231588375132
rfemur -24.69679306277209 -2.314719658527427 17.111220886877476
rtibia 54.50819499430027
rfoot -28.994947045360636 -16.654656435789395
rtoes -18.496564291585877
lfemur -25.89985675480366 2.439421253999673 -18.06365475291552
ltibia 53.19640792492547
lfoot -30.79173060783836 -3.457055700130606
ltoes -20.878459289149596
14
root 0 0 0 1.0393846782986875 -3.6724931110729546 1.8303803761808939
lowerback 11.978638787360659 0.849497388979077 -0.06286875517763593
upperback -4.23052330639677 1.0787542130880843 -0.5428011433614389
thorax -11.341363279649292 0.4937938785182094 -0.7840687734646763
lowerneck -5.780122216984054 1.4864337650500543 4.564980797927298
upperneck 18.034455734972987 2.9414880222436186 -8.344160623668822
head 6.589119027102329 1.0741001639098218 -3.224845087220374
rclavicle 1.985917286412626E-16 -2.0346772484800996E-15
rhumerus 19.886485196578885 14.34770589978302 -47.73782290389805
rradius 72.23062528803565
rwrist 27.130129343754987
rhand -34.62904321265176 -57.10466424953767
rfingers 7.125020000000035
rthumb -7.782076052086919 -87.15922299343214
lclavicle -1.1894424224583773E-16 -4.493464424116256E-16
lhumerus 21.029424950175873 -12.455027383883436 45.30206230237705
lradius 70.02896480339881
lwrist -22.26453402163824
lhand -44.78304717001806 -70.24537189661754
lfingers 7.125020000000026
lthumb -17.5711491498481 -40.92367253890955
rfemur -24.69711522185278 -2.3148843412326188 17.111249169118782
rtibia 54.50912497256503
rfoot -28.994625147443536 -16.6546009402571
rtoes -18.496007324726882
lfemur -25.900512015773618 2.439499218519816 -18.063771381075387
ltibia 53.197608654695905
lfoot -30.79109051966903 -3.4574055586690506
ltoes -20.876860940106212
15
root 0 0 0 1.0394504944798526 -3.6723610668221123 1.8304151871194698
lowerback 11.978650034453418 0.8495078931950982 -0.0629138010282701
upperback -4.230554524522088 1.078760819282445 -0.5428262554230496
thorax -11.341404897935023 0.49379778642598415 -0.7840726554938773
lowerneck -5.780419054411729 1.4864460537056006 4.564909190489892
upperneck 18.034602091324842 2.9414884428925503 -8.343999895468132
head 6.589217512399054 1.0741016068341045 -3.224783163159834
rclavicle 1.9494277011497166E-16 -2.0346106070692737E-15
rhumerus 19.885643927789374 14.34687634030956 -47.738010818076646
rradius 72.23000761285716
rwrist 27.130304827963347
rhand -34.62970141073372 -57.10525707594587
rfingers 7.125020000000035
rthumb -7.78270753991351 -87.15981686300515
lclavicle -1.2257923200099997E-16 -4.486533001170775E-16
lhumerus 21.029213428375133 -12.454648473232002 45.30252711894455
lradius 70.02867766565015
lwrist -22.264373837485437
lhand -44.78329778856474 -70.24668518122643
lfingers 7.125020000000026
lthumb -17.57138638983016 -40.92502740420025
rfemur -24.697254894729 -2.3149246911655537 17.11121639242658
rtibia 54.50937379510807
rfoot -28.994364915077522 -16.654631466597234
rtoes -18.495651989917107
lfemur -25.901307531115116 2.439457335307715 -18.06389132122163
ltibia 53.198179529009046
lfoot -30.790936897417108 -3.457463114031713
ltoes -20.875131738808015
16
root 0 0 0 1.0360031296004124 -3.6696415256475388 1.8298249921219778
lowerback 11.979077711487307 0.8494975530363313 -0.061778216250128665
upperback -4.2316550890318485 1.0789897855574455 -0.5429208030327619
thorax -11.343396474890678 0.4938206384195641 -0.7847985813670317
lowerneck -5.777109849633901 1.4848711763839149 4.564210570085557
upperneck 18.032857059525277 2.9395077521792734 -8.343931914761274
head 6.588175971488421 1.0731353286333751 -3.224757965315231
rclavicle 4.68331873720307E-16 -2.061226648295652E-15
rhumerus 19.942664164656723 14.406542208862007 -47.7385145525191
rradius 72.25582035507415
rwrist 27.08712379105891
rhand -34.55992445591937 -57.012556443684694
rfingers 7.1250200000000365
rthumb -7.712914774218687 -87.06354588421888
lclavicle -4.89462634223707E-17 -3.705039916585928E-16
lhumerus 21.03437686515977 -12.423774843359348 45.290878555742445
lradius 70.04260622208601
lwrist -22.283075367464193
lhand -44.80389086689402 -70.37978111024408
lfingers 7.125020000000027
lthumb -17.594687291238444 -41.081554724077805
rfemur -24.678610248969992 -2.295595541044651 17.10595613504587
rtibia 54.418355706754895
rfoot -28.972611035322117 -16.66888860649915
rtoes -18.473348878635143
lfemur -25.909910694409398 2.443409391262572 -18.063442834391665
ltibia 53.16996211585992
lfoot -30.842327125943633 -3.4310835413395235
ltoes -20.891462330259166
17
root 0 0 0 1.038384652323622 -3.674360339139017 1.8298163063431652
lowerback 11.978663537883026 0.8492586678995637 -0.062210047769700794
upperback -4.229976014567898 1.0785638653444103 -0.5423841598015029
thorax -11.340798750639022 0.49368511146818334 -0.7839493468580166
lowerneck -5.775341140490978 1.4861099315882198 4.565891863859913
upperneck 18.03181616684088 2.9413192313559673 -8.346514018311595
head 6.5874527439749215 1.073983755900957 -3.2257298749996486
rclavicle 2.101045384015293E-16 -2.0187791962612247E-15
rhumerus 19.894686065170788 14.355672572092615 -47.73303377331638
rradius 72.23570523069338
rwrist 27.129011928146262
rhand -34.6194288160666 -57.094167585215814
rfingers 7.125020000000035
rthumb -7.772724147376158 -87.14909420479053
lclavicle -9.926057362353653E-17 -4.464872376042594E-16
lhumerus 21.034390621214296 -12.460703292596234 45.29461990096695
lradius 70.03442543241414
lwrist -22.267798747670597
lhand -44.78061989191582 -70.2314268378191
lfingers 7.125020000000026
lthumb -17.56873365913358 -40.909335278495895
rfemur -24.696213229686702 -2.3151440286983687 17.11162200160934
rtibia 54.51041759830803
rfoot -28.997508584274886 -16.65362776712339
rtoes -18.493271698825
lfemur -25.892227491547356 2.4413762282203324 -18.061915143666987
ltibia 53.19536511979704
lfoot -30.794407021566037 -3.4539723775940665
ltoes -20.898382302445274
18
root 0 0 0 1.0388227539854813 -3.6736433228260585 1.8299860846976004
lowerback 11.978687096840488 0.8493537744548212 -0.06240325983622
upperback -4.2301519475250124 1.0786474759770612 -0.5425318057349194
thorax -11.340983092318506 0.49373191397110827 -0.7840121902628133
lowerneck -5.777278665515032 1.4862094806663908 4.565521986629673
upperneck 18.032766415422895 2.941339570028857 -8.345583792118376
head 6.58808637372233 1.0740147034913772 -3.2253847407826073
rclavicle 2.1221342887832013E-16 -2.0315450167664005E-15
rhumerus 19.891149865838393 14.352300054650975 -47.736464325292744
rradius 72.23376398380015
rwrist 27.129018722023684
rhand -34.624299663709415 -57.09949651204933
rfingers 7.125020000000035
rthumb -7.777551603352096 -87.15394117625706
lclavicle -1.0478472743648312E-16 -4.482734106003181E-16
lhumerus 21.031001038268652 -12.457879796925619 45.29867479915487
lradius 70.03086892153966
lwrist -22.265439954721856
lhand -44.781215833550995 -70.2349988371172
lfingers 7.125020000000026
lthumb -17.569404066000867 -40.91315668994821
rfemur -24.697270919676058 -2.3150723966592537 17.111388510363533
rtibia 54.50986650863095
rfoot -28.995788118480316 -16.654550732505914
rtoes -18.496502512036095
lfemur -25.898260624637988 2.4406720815244234 -18.06292326353026
ltibia 53.19795504038852
lfoot -30.791019768985613 -3.4564554621374803
ltoes -20.88341958289774
19
root 0 0 0 1.0390173534031002 -3.673205597765789 1.830142528040124
lowerback 11.978661139432534 0.8494069760700288 -0.06257759389974193
upperback -4.230282544699949 1.0786858806691064 -0.5426343979216417
thorax -11.341109154706173 0.49375458122070287 -0.7840351723951493
lowerneck -5.778318156875677 1.4862965365348466 4.565338121288941
upperneck 18.03338426978172 2.941398283237281 -8.345075445329009
head 6.588463528548914 1.0740488654274083 -3.2251938799433923
rclavicle 2.0567175330459461E-16 -2.0337511629224494E-15
rhumerus 19.88931140205687 14.350473437373328 -47.73701102207779
rradius 72.23257757684128
rwrist 27.12952662908401
rhand -34.62628218682066 -57.10177413948233
rfingers 7.125020000000035
rthumb -7.7794385329843445 -87.15630581485765
lclavicle -1.1080991545416866E-16 -4.497024677080932E-16
lhumerus 21.030424296559804 -12.456754239723193 45.300031114452324
lradius 70.03019242965473
lwrist -22.265094533044312
lhand -44.78199951908349 -70.23943393292052
lfingers 7.125020000000026
lthumb -17.570157928281517 -40.91763808879065
rfemur -24.6972053674247 -2.315007742631267 17.111363092143534
rtibia 54.5097252044923
rfoot -28.99548279840981 -16.65466994085313
rtoes -18.496354284789305
lfemur -25.899465062933672 2.4403629734452705 -18.063276749411173
ltibia 53.198625041808995
lfoot -30.790752373956188 -3.4567902633615057
ltoes -20.88025541997442
